<svg xmlns="http://www.w3.org/2000/svg" width="1600" height="900" viewBox="0 0 1600 900" role="img" aria-labelledby="title desc">
  <title id="title">mac-skills</title>
  <desc id="desc">Local-first macOS skills for AI agents</desc>
  <defs>
    <linearGradient id="bg" x1="0" y1="0" x2="1" y2="1">
      <stop offset="0" stop-color="#f8fafc"/>
      <stop offset="0.48" stop-color="#eef7f3"/>
      <stop offset="1" stop-color="#f7f5ee"/>
    </linearGradient>
    <linearGradient id="panel" x1="0" y1="0" x2="1" y2="1">
      <stop offset="0" stop-color="#ffffff" stop-opacity="0.96"/>
      <stop offset="1" stop-color="#eef4f8" stop-opacity="0.9"/>
    </linearGradient>
    <filter id="shadow" x="-20%" y="-20%" width="140%" height="140%">
      <feDropShadow dx="0" dy="18" stdDeviation="24" flood-color="#294052" flood-opacity="0.12"/>
    </filter>
    <style>
      .line { stroke: #8aa2b6; stroke-width: 5; stroke-linecap: round; opacity: 0.72; }
      .card { fill: url(#panel); stroke: rgba(74, 93, 112, 0.18); stroke-width: 2; filter: url(#shadow); }
      .soft { fill: none; stroke-width: 10; stroke-linecap: round; opacity: 0.86; }
    </style>
  </defs>

  <rect width="1600" height="900" fill="url(#bg)"/>
  <circle cx="1340" cy="135" r="190" fill="#e1f0ea" opacity="0.46"/>
  <circle cx="1260" cy="760" r="220" fill="#f3e7c5" opacity="0.42"/>
  <circle cx="410" cy="780" r="240" fill="#dceafa" opacity="0.38"/>

  <g transform="translate(126 232)">
    <text x="0" y="0" font-family="-apple-system, BlinkMacSystemFont, Segoe UI, sans-serif" font-size="104" font-weight="800" letter-spacing="0" fill="#162033">mac-skills</text>
    <text x="4" y="72" font-family="-apple-system, BlinkMacSystemFont, Segoe UI, sans-serif" font-size="36" font-weight="500" letter-spacing="0" fill="#475569">Local-first macOS skills for AI agents</text>
    <rect x="4" y="126" width="392" height="8" rx="4" fill="#2563eb"/>
    <rect x="420" y="126" width="92" height="8" rx="4" fill="#22c55e"/>
    <rect x="530" y="126" width="92" height="8" rx="4" fill="#f59e0b"/>
  </g>

  <g transform="translate(858 168)">
    <line class="line" x1="235" y1="270" x2="118" y2="146"/>
    <line class="line" x1="235" y1="270" x2="424" y2="142"/>
    <line class="line" x1="235" y1="270" x2="104" y2="444"/>
    <line class="line" x1="235" y1="270" x2="422" y2="444"/>

    <rect class="card" x="118" y="178" width="238" height="184" rx="42"/>
    <circle cx="237" cy="270" r="54" fill="#dbeafe" stroke="#2563eb" stroke-width="8"/>
    <path d="M214 272h46M237 249v46" stroke="#2563eb" stroke-width="10" stroke-linecap="round"/>
    <path d="M198 326c34 26 72 26 106 0" fill="none" stroke="#0f766e" stroke-width="8" stroke-linecap="round"/>

    <g transform="translate(22 24)">
      <rect class="card" width="190" height="150" rx="34"/>
      <rect x="46" y="42" width="98" height="72" rx="12" fill="#eff6ff" stroke="#2563eb" stroke-width="7"/>
      <path d="M46 63h98M72 29v28M118 29v28" stroke="#2563eb" stroke-width="7" stroke-linecap="round"/>
      <circle cx="75" cy="86" r="6" fill="#22c55e"/>
      <circle cx="104" cy="86" r="6" fill="#f59e0b"/>
      <circle cx="133" cy="86" r="6" fill="#0f766e"/>
    </g>

    <g transform="translate(424 20)">
      <rect class="card" width="190" height="154" rx="34"/>
      <path d="M50 48h88M50 78h88M50 108h88" stroke="#0f766e" stroke-width="8" stroke-linecap="round"/>
      <path d="M33 48l8 8 16-20M33 78l8 8 16-20M33 108l8 8 16-20" fill="none" stroke="#22c55e" stroke-width="7" stroke-linecap="round" stroke-linejoin="round"/>
    </g>

    <g transform="translate(10 434)">
      <rect class="card" width="204" height="158" rx="34"/>
      <path d="M64 34h66l35 35v61H64z" fill="#fff7ed" stroke="#f59e0b" stroke-width="8" stroke-linejoin="round"/>
      <path d="M130 34v36h35" fill="none" stroke="#f59e0b" stroke-width="8" stroke-linejoin="round"/>
      <path d="M86 88h54M86 112h42" stroke="#92400e" stroke-width="8" stroke-linecap="round"/>
    </g>

    <g transform="translate(424 430)">
      <rect class="card" width="204" height="162" rx="34"/>
      <path d="M102 32l57 24v48c0 35-24 58-57 74-33-16-57-39-57-74V56z" fill="#ecfeff" stroke="#0f766e" stroke-width="8" stroke-linejoin="round"/>
      <path d="M82 101l16 17 32-43" fill="none" stroke="#2563eb" stroke-width="10" stroke-linecap="round" stroke-linejoin="round"/>
    </g>

    <path class="soft" d="M118 146c42-56 102-80 178-72" stroke="#2563eb"/>
    <path class="soft" d="M424 142c-18-52-60-88-126-108" stroke="#22c55e"/>
    <path class="soft" d="M104 444c20 54 62 90 128 108" stroke="#f59e0b"/>
    <path class="soft" d="M422 444c-36 62-92 92-170 90" stroke="#0f766e"/>
  </g>
</svg>
